<svg xmlns="http://www.w3.org/2000/svg" style="display: none;">
    <defs>
        <symbol id="i1" viewBox="0 0 210 210">
            <path d="M0 105C0 47.103 47.103 0 105 0c23.383 0 45.515 7.523 64.004 21.756l-24.4 31.696C133.172 44.652 119.477 40 105 40c-35.841 0-65 29.159-65 65s29.159 65 65 65c28.867 0 53.398-18.913 61.852-45H105V85h105v20c0 57.897-47.103 105-105 105S0 162.897 0 105z"/>
        </symbol>
        <symbol id="i2" viewBox="0 0 20 20">
            <path fill-rule="evenodd" clip-rule="evenodd" d="M16.707 5.293a1 1 0 010 1.414l-8 8a1 1 0 01-1.414 0l-4-4a1 1 0 011.414-1.414L8 12.586l7.293-7.293a1 1 0 011.414 0z" />
        </symbol>

        <symbol id="i3" viewBox="0 0 20 20">
            <path fill-rule="evenodd" d="M10 18a8 8 0 100-16 8 8 0 000 16zM8.707 7.293a1 1 0 00-1.414 1.414L8.586 10l-1.293 1.293a1 1 0 101.414 1.414L10 11.414l1.293 1.293a1 1 0 001.414-1.414L11.414 10l1.293-1.293a1 1 0 00-1.414-1.414L10 8.586 8.707 7.293z" clip-rule="evenodd" />
        </symbol>

        <symbol id="i4" viewBox="0 0 24 24">
            <path d="M13.46,12L19,17.54V19H17.54L12,13.46L6.46,19H5V17.54L10.54,12L5,6.46V5H6.46L12,10.54L17.54,5H19V6.46L13.46,12Z"/>
        </symbol>
        <symbol id="i5" viewBox="0 0 24 24">
            <path d="M13,13H11V7H13M13,17H11V15H13M12,2A10,10 0 0,0 2,12A10,10 0 0,0 12,22A10,10 0 0,0 22,12A10,10 0 0,0 12,2Z"/>
        </symbol>
        <symbol id="i6" viewBox="0 0 24 24">
            <path d="M11 7V9H13V7H11M14 17V15H13V11H10V13H11V15H10V17H14M22 12C22 17.5 17.5 22 12 22C6.5 22 2 17.5 2 12C2 6.5 6.5 2 12 2C17.5 2 22 6.5 22 12M20 12C20 7.58 16.42 4 12 4C7.58 4 4 7.58 4 12C4 16.42 7.58 20 12 20C16.42 20 20 16.42 20 12Z"/>
        </symbol>
        <symbol id="i7" viewBox="0 0 24 24">
            <path d="M12,20C7.59,20 4,16.41 4,12C4,7.59 7.59,4 12,4C16.41,4 20,7.59 20,12C20,16.41 16.41,20 12,20M12,2C6.47,2 2,6.47 2,12C2,17.53 6.47,22 12,22C17.53,22 22,17.53 22,12C22,6.47 17.53,2 12,2M14.59,8L12,10.59L9.41,8L8,9.41L10.59,12L8,14.59L9.41,16L12,13.41L14.59,16L16,14.59L13.41,12L16,9.41L14.59,8Z" />
        </symbol>
        <symbol id="i8" viewBox="0 0 24 24">
            <path d="M12 2C6.5 2 2 6.5 2 12S6.5 22 12 22 22 17.5 22 12 17.5 2 12 2M12 20C7.59 20 4 16.41 4 12S7.59 4 12 4 20 7.59 20 12 16.41 20 12 20M16.59 7.58L10 14.17L7.41 11.59L6 13L10 17L18 9L16.59 7.58Z" />
        </symbol>
        <symbol id="i9" viewBox="0 0 20 20">
            <path fill-rule="evenodd" d="M7.84 1.804A1 1 0 018.82 1h2.36a1 1 0 01.98.804l.331 1.652a6.993 6.993 0 011.929 1.115l1.598-.54a1 1 0 011.186.447l1.18 2.044a1 1 0 01-.205 1.251l-1.267 1.113a7.047 7.047 0 010 2.228l1.267 1.113a1 1 0 01.206 1.25l-1.18 2.045a1 1 0 01-1.187.447l-1.598-.54a6.993 6.993 0 01-1.929 1.115l-.33 1.652a1 1 0 01-.98.804H8.82a1 1 0 01-.98-.804l-.331-1.652a6.993 6.993 0 01-1.929-1.115l-1.598.54a1 1 0 01-1.186-.447l-1.18-2.044a1 1 0 01.205-1.251l1.267-1.114a7.05 7.05 0 010-2.227L1.821 7.773a1 1 0 01-.206-1.25l1.18-2.045a1 1 0 011.187-.447l1.598.54A6.993 6.993 0 017.51 3.456l.33-1.652zM10 13a3 3 0 100-6 3 3 0 000 6z"/>
        </symbol>
        <symbol id="i10" viewBox="0 0 448 512">
            <path d="M224 512c35.32 0 63.97-28.65 63.97-64H160.03c0 35.35 28.65 64 63.97 64zm215.39-149.71c-19.32-20.76-55.47-51.99-55.47-154.29 0-77.7-54.48-139.9-127.94-155.16V32c0-17.67-14.32-32-31.98-32s-31.98 14.33-31.98 32v20.84C118.56 68.1 64.08 130.3 64.08 208c0 102.3-36.15 133.53-55.47 154.29-6 6.45-8.66 14.16-8.61 21.71.11 16.4 12.98 32 32.1 32h383.8c19.12 0 32-15.6 32.1-32 .05-7.55-2.61-15.27-8.61-21.71z" />
        </symbol>
        <symbol id="i11" viewBox="0 0 8.32 8.324">
            <path d="M8.318 2.232c-.037.808-.603 1.915-1.697 3.32-1.132 1.467-2.09 2.2-2.873 2.2-.485 0-.896-.448-1.23-1.343l-.67-2.462c-.25-.896-.517-1.343-.802-1.343-.062 0-.28.13-.653.392l-.392-.504L1.21 1.41c.547-.473.957-.72 1.23-.746C3.09.603 3.487 1.044 3.636 2l.336 1.903c.186.846.392 1.27.615 1.27.174 0 .435-.274.784-.82s.535-.964.56-1.25c.05-.473-.137-.71-.56-.71-.2 0-.404.044-.615.13.4-1.33 1.194-1.977 2.35-1.94.858.025 1.262.578 1.212 1.66z"/>
        </symbol>
        <symbol id="i12" viewBox="0 0 24 24">
            <path d="M10,15L15.19,12L10,9V15M21.56,7.17C21.69,7.64 21.78,8.27 21.84,9.07C21.91,9.87 21.94,10.56 21.94,11.16L22,12C22,14.19 21.84,15.8 21.56,16.83C21.31,17.73 20.73,18.31 19.83,18.56C19.36,18.69 18.5,18.78 17.18,18.84C15.88,18.91 14.69,18.94 13.59,18.94L12,19C7.81,19 5.2,18.84 4.17,18.56C3.27,18.31 2.69,17.73 2.44,16.83C2.31,16.36 2.22,15.73 2.16,14.93C2.09,14.13 2.06,13.44 2.06,12.84L2,12C2,9.81 2.16,8.2 2.44,7.17C2.69,6.27 3.27,5.69 4.17,5.44C4.64,5.31 5.5,5.22 6.82,5.16C8.12,5.09 9.31,5.06 10.41,5.06L12,5C16.19,5 18.8,5.16 19.83,5.44C20.73,5.69 21.31,6.27 21.56,7.17Z" />
        </symbol>
        <symbol id="i13" viewBox="0 0 24 24">
            <path d="M12,2A10,10 0 0,0 2,12A10,10 0 0,0 12,22A10,10 0 0,0 22,12A10,10 0 0,0 12,2Z" />
        </symbol>
        <symbol id="i14" viewBox="0 0 24 24">
            <path d="M12 2C17.5 2 22 6.5 22 12S17.5 22 12 22 2 17.5 2 12 6.5 2 12 2M12 4C10.1 4 8.4 4.6 7.1 5.7L18.3 16.9C19.3 15.5 20 13.8 20 12C20 7.6 16.4 4 12 4M16.9 18.3L5.7 7.1C4.6 8.4 4 10.1 4 12C4 16.4 7.6 20 12 20C13.9 20 15.6 19.4 16.9 18.3Z" />
        </symbol>
        <symbol id="i15" viewBox="0 0 24 24">
            <path d="M19,13H13V19H11V13H5V11H11V5H13V11H19V13Z" />
        </symbol>
        <symbol id="i16" viewBox="0 0 24 24">
            <path d="M9.5,3A6.5,6.5 0 0,1 16,9.5C16,11.11 15.41,12.59 14.44,13.73L14.71,14H15.5L20.5,19L19,20.5L14,15.5V14.71L13.73,14.44C12.59,15.41 11.11,16 9.5,16A6.5,6.5 0 0,1 3,9.5A6.5,6.5 0 0,1 9.5,3M9.5,5C7,5 5,7 5,9.5C5,12 7,14 9.5,14C12,14 14,12 14,9.5C14,7 12,5 9.5,5Z" />
        </symbol>
        <symbol id="i17" viewBox="0 0 24 24">
            <path d="M19 17H22L18 21L14 17H17V3H19M2 17H12V19H2M6 5V7H2V5M2 11H9V13H2V11Z" />
        </symbol>
        <symbol id="i18" viewBox="0 0 24 24">
            <path d="M19 7H22L18 3L14 7H17V21H19M2 17H12V19H2M6 5V7H2V5M2 11H9V13H2V11Z" />
        </symbol>
        <symbol id="i19" viewBox="0 0 24 24">

        </symbol>
    </defs>
</svg>