<svg xmlns="http://www.w3.org/2000/svg" style="display: none;">
    <defs>
        <symbol id="i1" viewBox="0 0 210 210">
            <path d="M0 105C0 47.103 47.103 0 105 0c23.383 0 45.515 7.523 64.004 21.756l-24.4 31.696C133.172 44.652 119.477 40 105 40c-35.841 0-65 29.159-65 65s29.159 65 65 65c28.867 0 53.398-18.913 61.852-45H105V85h105v20c0 57.897-47.103 105-105 105S0 162.897 0 105z"/>
        </symbol>
        <symbol id="i2" viewBox="0 0 20 20">
            <path fill-rule="evenodd" clip-rule="evenodd" d="M16.707 5.293a1 1 0 010 1.414l-8 8a1 1 0 01-1.414 0l-4-4a1 1 0 011.414-1.414L8 12.586l7.293-7.293a1 1 0 011.414 0z" />
        </symbol>

        <symbol id="i3" viewBox="0 0 20 20">
            <path fill-rule="evenodd" d="M10 18a8 8 0 100-16 8 8 0 000 16zM8.707 7.293a1 1 0 00-1.414 1.414L8.586 10l-1.293 1.293a1 1 0 101.414 1.414L10 11.414l1.293 1.293a1 1 0 001.414-1.414L11.414 10l1.293-1.293a1 1 0 00-1.414-1.414L10 8.586 8.707 7.293z" clip-rule="evenodd" />
        </symbol>

        <symbol id="i4" viewBox="0 0 24 24">
            <path d="M13.46,12L19,17.54V19H17.54L12,13.46L6.46,19H5V17.54L10.54,12L5,6.46V5H6.46L12,10.54L17.54,5H19V6.46L13.46,12Z"/>
        </symbol>
        <symbol id="i5" viewBox="0 0 24 24">
            <path d="M13,13H11V7H13M13,17H11V15H13M12,2A10,10 0 0,0 2,12A10,10 0 0,0 12,22A10,10 0 0,0 22,12A10,10 0 0,0 12,2Z"/>
        </symbol>
        <symbol id="i6" viewBox="0 0 24 24">
            <path d="M11 7V9H13V7H11M14 17V15H13V11H10V13H11V15H10V17H14M22 12C22 17.5 17.5 22 12 22C6.5 22 2 17.5 2 12C2 6.5 6.5 2 12 2C17.5 2 22 6.5 22 12M20 12C20 7.58 16.42 4 12 4C7.58 4 4 7.58 4 12C4 16.42 7.58 20 12 20C16.42 20 20 16.42 20 12Z"/>
        </symbol>
        <symbol id="i7" viewBox="0 0 24 24">
            <path d="M12,20C7.59,20 4,16.41 4,12C4,7.59 7.59,4 12,4C16.41,4 20,7.59 20,12C20,16.41 16.41,20 12,20M12,2C6.47,2 2,6.47 2,12C2,17.53 6.47,22 12,22C17.53,22 22,17.53 22,12C22,6.47 17.53,2 12,2M14.59,8L12,10.59L9.41,8L8,9.41L10.59,12L8,14.59L9.41,16L12,13.41L14.59,16L16,14.59L13.41,12L16,9.41L14.59,8Z" />
        </symbol>
        <symbol id="i8" viewBox="0 0 24 24">
            <path d="M12 2C6.5 2 2 6.5 2 12S6.5 22 12 22 22 17.5 22 12 17.5 2 12 2M12 20C7.59 20 4 16.41 4 12S7.59 4 12 4 20 7.59 20 12 16.41 20 12 20M16.59 7.58L10 14.17L7.41 11.59L6 13L10 17L18 9L16.59 7.58Z" />
        </symbol>
        <symbol id="i9" viewBox="0 0 20 20">
            <path fill-rule="evenodd" d="M7.84 1.804A1 1 0 018.82 1h2.36a1 1 0 01.98.804l.331 1.652a6.993 6.993 0 011.929 1.115l1.598-.54a1 1 0 011.186.447l1.18 2.044a1 1 0 01-.205 1.251l-1.267 1.113a7.047 7.047 0 010 2.228l1.267 1.113a1 1 0 01.206 1.25l-1.18 2.045a1 1 0 01-1.187.447l-1.598-.54a6.993 6.993 0 01-1.929 1.115l-.33 1.652a1 1 0 01-.98.804H8.82a1 1 0 01-.98-.804l-.331-1.652a6.993 6.993 0 01-1.929-1.115l-1.598.54a1 1 0 01-1.186-.447l-1.18-2.044a1 1 0 01.205-1.251l1.267-1.114a7.05 7.05 0 010-2.227L1.821 7.773a1 1 0 01-.206-1.25l1.18-2.045a1 1 0 011.187-.447l1.598.54A6.993 6.993 0 017.51 3.456l.33-1.652zM10 13a3 3 0 100-6 3 3 0 000 6z"/>
        </symbol>
    </defs>
</svg>